<svg aria-hidden="true" style="position: absolute; width: 0; height: 0; overflow: hidden;" version="1.1" xmlns="http://www.w3.org/2000/svg" xmlns:xlink="http://www.w3.org/1999/xlink">
<defs>
<symbol id="phone-black-18dp-1" viewBox="0 0 32 32">
<path d="M24.889 19.733l-3.2-0.356c-0.889 0-1.778 0.178-2.133 0.711l-2.489 2.489c-3.556-1.778-6.578-4.978-8.356-8.533l2.311-2.489c0.533-0.533 0.889-1.244 0.711-1.956l-0.356-3.378c0-1.244-1.244-2.133-2.489-2.133h-2.311c-1.422 0-2.667 1.067-2.489 2.667 0.711 10.844 9.422 19.556 20.444 20.444 1.422 0 2.667-1.244 2.667-2.667v-2.133c0-1.422-1.067-2.489-2.311-2.667z"></path>
</symbol>
<symbol id="email-black-18dp-1" viewBox="0 0 32 32">
<path d="M26.667 5.333h-21.333c-1.422 0-2.667 1.244-2.667 2.667v16c0 1.422 1.244 2.667 2.667 2.667h21.333c1.422 0 2.667-1.244 2.667-2.667v-16c0-1.422-1.244-2.667-2.667-2.667zM26.133 11.022l-9.422 5.867c-0.356 0.356-1.067 0.356-1.422 0l-9.422-5.867c-0.281-0.199-0.463-0.523-0.463-0.889 0-0.599 0.486-1.085 1.085-1.085 0.233 0 0.449 0.073 0.626 0.198l-0.003-0.002 8.889 5.333 8.889-5.333c0.173-0.123 0.389-0.196 0.622-0.196 0.599 0 1.085 0.486 1.085 1.085 0 0.366-0.181 0.69-0.459 0.887l-0.003 0.002z"></path>
</symbol>
<symbol id="person-black-18dp-1" viewBox="0 0 32 32">
<path d="M16 16c2.946 0 5.333-2.388 5.333-5.333s-2.388-5.333-5.333-5.333v0c-2.946 0-5.333 2.388-5.333 5.333s2.388 5.333 5.333 5.333v0zM16 18.667c-3.556 0-10.667 1.778-10.667 5.333v1.422c0 0.711 0.533 1.244 1.422 1.244h18.489c0.889 0 1.422-0.533 1.422-1.422v-1.244c0-3.556-7.111-5.333-10.667-5.333z"></path>
</symbol>
<symbol id="icon-send" viewBox="0 0 32 32">
<path d="M32 0l-32 18 10.267 3.733 15.733-14.667-12 16v8.933l5.733-6.667 7.333 2.667 4.933-28z"></path>
</symbol>
<symbol id="icon-check" viewBox="0 0 32 32">
<path d="M4 1h24c2.209 0 4 1.791 4 4v22c0 2.209-1.791 4-4 4h-24c-2.209 0-4-1.791-4-4v-22c0-2.209 1.791-4 4-4z"></path>
<path stroke="#fff" stroke-width="0.4" stroke-miterlimit="4" stroke-linecap="butt" stroke-linejoin="miter" style="fill: var(--color1, #fff); stroke: var(--color1, #fff)" d="M8 16.6l-0.2-0.2-2 1.8v0.2l7 6.8h0.2l15.2-14.4v-0.2l-2-1.8-13.2 12.6-5-4.8z"></path>
</symbol>
</defs>
</svg>
